HIERARCHY
ROOT joint_0
{
	OFFSET 0.000000 0.000000 0.000000
	CHANNELS 6 Xposition Yposition Zposition Zrotation Yrotation Xrotation 
	JOINT joint_1
	{
		OFFSET 7.683380 1.521202 101.454956
		CHANNELS 3 Zrotation Yrotation Xrotation
		JOINT joint_2
		{
			OFFSET -4.816528 0.859650 92.807007
			CHANNELS 3 Zrotation Yrotation Xrotation
			JOINT joint_3
			{
				OFFSET -7.237778 1.114670 92.543091
				CHANNELS 3 Zrotation Yrotation Xrotation
				JOINT joint_4
				{
					OFFSET 0.479660 2.971886 127.844971
					CHANNELS 3 Zrotation Yrotation Xrotation
					JOINT joint_5
					{
						OFFSET 15.211349 9.937172 76.390015
						CHANNELS 3 Zrotation Yrotation Xrotation
						End Site
						{
							OFFSET 0.000000 0.000000 0.000000
						}
					}
				}
				JOINT joint_6
				{
					OFFSET 2.887054 -26.053230 72.331909
					CHANNELS 3 Zrotation Yrotation Xrotation
					JOINT joint_7
					{
						OFFSET 10.229767 -132.540291 -13.979004
						CHANNELS 3 Zrotation Yrotation Xrotation
						JOINT joint_8
						{
							OFFSET 17.695633 -10.988861 -262.204956
							CHANNELS 3 Zrotation Yrotation Xrotation
							JOINT joint_9
							{
								OFFSET 11.003433 -0.031860 -255.909973
								CHANNELS 3 Zrotation Yrotation Xrotation
								End Site
								{
									OFFSET 0.000000 0.000000 0.000000
								}
							}
						}
					}
				}
				JOINT joint_10
				{
					OFFSET -2.092239 29.348854 71.062988
					CHANNELS 3 Zrotation Yrotation Xrotation
					JOINT joint_11
					{
						OFFSET -11.853149 131.935837 -17.877075
						CHANNELS 3 Zrotation Yrotation Xrotation
						JOINT joint_12
						{
							OFFSET 14.084503 10.700203 -262.437012
							CHANNELS 3 Zrotation Yrotation Xrotation
							JOINT joint_13
							{
								OFFSET 48.202347 13.087273 -251.229919
								CHANNELS 3 Zrotation Yrotation Xrotation
								End Site
								{
									OFFSET 0.000000 0.000000 0.000000
								}
							}
						}
					}
				}
			}
		}
	}
	JOINT joint_14
	{
		OFFSET 4.150818 -83.296913 -102.580017
		CHANNELS 3 Zrotation Yrotation Xrotation
		JOINT joint_15
		{
			OFFSET -36.423187 -7.342392 -449.858948
			CHANNELS 3 Zrotation Yrotation Xrotation
			JOINT joint_16
			{
				OFFSET -41.100235 -7.280350 -426.202026
				CHANNELS 3 Zrotation Yrotation Xrotation
				JOINT joint_17
				{
					OFFSET 175.972961 13.159744 -75.358000
					CHANNELS 3 Zrotation Yrotation Xrotation
					End Site
					{
						OFFSET 0.000000 0.000000 0.000000
					}
				}
			}
		}
	}
	JOINT joint_18
	{
		OFFSET -9.062592 83.477568 -102.093018
		CHANNELS 3 Zrotation Yrotation Xrotation
		JOINT joint_19
		{
			OFFSET -39.145699 -6.092751 -449.645996
			CHANNELS 3 Zrotation Yrotation Xrotation
			JOINT joint_20
			{
				OFFSET -32.926178 -7.016375 -426.911980
				CHANNELS 3 Zrotation Yrotation Xrotation
				JOINT joint_21
				{
					OFFSET 176.289299 16.780729 -73.883997
					CHANNELS 3 Zrotation Yrotation Xrotation
					End Site
					{
						OFFSET 0.000000 0.000000 0.000000
					}
				}
			}
		}
	}
}
MOTION
Frames: 18
Frame Time: 0.016667
181.463043 -112.457993 1080.279053 -2.294107 3.869957 -0.271308 -0.522588 2.714923 1.185125 -0.588489 -0.526508 -0.164980 -0.577149 0.585374 0.149348 0.563130 -6.417228 1.774072 0.000000 0.000000 0.000000 4.703697 4.929838 -2.200365 -0.871198 5.850413 2.853186 0.291560 -29.880742 3.781002 0.000000 0.000000 0.000000 0.089617 7.528006 2.849037 -1.156657 6.478132 -9.034484 -1.730849 -26.322131 -3.931735 0.000000 0.000000 0.000000 -0.739672 -5.835984 1.089586 -0.913081 6.705264 0.462070 -0.759310 -0.980934 -0.250047 0.000000 0.000000 0.000000 1.842781 -4.543156 2.107691 2.090913 4.998393 -2.208725 1.954747 0.120319 0.804207 0.000000 0.000000 0.000000 
189.337280 -112.751877 1082.791016 -2.751496 3.678582 -0.607639 -0.473962 2.997465 1.673158 -0.601027 -0.418760 -0.446602 -0.559107 0.535660 0.222463 0.488227 -6.398524 2.199182 0.000000 0.000000 0.000000 4.973695 4.833997 -2.868246 -0.983920 5.796559 2.620808 0.371030 -35.324434 4.363758 0.000000 0.000000 0.000000 0.420515 8.267236 3.727917 -1.258878 7.014056 -10.523101 -1.791691 -32.329673 -2.758013 0.000000 0.000000 0.000000 -0.458486 -8.450683 1.290467 -0.739972 12.948437 0.481873 -0.582989 -2.337192 -0.070497 0.000000 0.000000 0.000000 1.822998 -5.196117 2.607758 2.111136 7.583544 -2.302759 2.032440 -0.248532 0.868161 0.000000 0.000000 0.000000 
196.584961 -112.478432 1085.745972 -3.250916 3.226726 -0.825404 -0.333936 3.364441 2.074690 -0.559517 -0.270455 -0.631451 -0.488496 0.467838 0.358089 0.351052 -6.180673 2.775111 0.000000 0.000000 0.000000 5.138262 4.209652 -3.564981 -1.308373 5.137127 1.375316 0.355514 -40.157049 5.519306 0.000000 0.000000 0.000000 0.719176 8.554920 4.704887 -1.300074 7.100575 -11.782709 -1.761539 -37.287415 -0.818846 0.000000 0.000000 0.000000 -0.011513 -11.910246 1.145143 -0.379645 21.163995 0.786191 -0.231385 -3.044047 0.133706 0.000000 0.000000 0.000000 1.744155 -5.969738 2.840974 2.081760 10.840956 -2.143537 2.113292 -0.321397 0.901506 0.000000 0.000000 0.000000 
203.932526 -112.760475 1088.540039 -3.638452 2.804728 -0.825353 -0.087019 3.855291 2.082506 -0.448752 -0.270113 -0.617675 -0.374189 0.449243 0.457830 0.202350 -5.906195 3.337303 0.000000 0.000000 0.000000 5.061887 3.132235 -3.980375 -1.728083 3.973373 -0.057309 0.241895 -43.492764 6.429781 0.000000 0.000000 0.000000 0.635749 8.351739 5.673443 -1.186197 6.832699 -12.227259 -1.646680 -40.320744 0.807886 0.000000 0.000000 0.000000 0.327313 -15.266493 0.611528 -0.007181 28.846356 1.355910 0.172857 -2.790670 0.280126 0.000000 0.000000 0.000000 1.592133 -6.695417 2.879913 2.028443 13.898112 -2.016421 2.181252 -0.030015 0.891897 0.000000 0.000000 0.000000 
211.710297 -114.505394 1090.801025 -4.144448 2.854207 -0.801143 0.399895 4.167660 1.964133 -0.117144 -0.385978 -0.577460 -0.060974 0.534629 0.433370 0.071016 -5.647413 3.779909 0.000000 0.000000 0.000000 4.567100 1.634015 -4.105901 -2.075807 2.391679 -0.907670 0.114996 -44.779618 6.598312 0.000000 0.000000 0.000000 -0.176118 7.580829 6.621140 -0.796502 6.267298 -11.193703 -1.404034 -40.390984 1.227904 0.000000 0.000000 0.000000 0.527487 -18.515721 -0.032853 0.353978 35.188117 2.083080 0.567751 -2.412544 0.405597 0.000000 0.000000 0.000000 1.436701 -7.521139 3.074569 2.070585 16.213752 -2.168101 2.308848 0.392332 0.893148 0.000000 0.000000 0.000000 
219.650085 -117.291740 1092.762939 -4.804626 3.261323 -0.749048 1.115157 4.300291 1.738249 0.426350 -0.549615 -0.497091 0.438945 0.695667 0.321553 -0.061946 -5.360414 4.169403 0.000000 0.000000 0.000000 3.687710 -0.286291 -3.986448 -2.383961 0.371223 -1.562487 -0.013064 -44.439739 6.347230 0.000000 0.000000 0.000000 -1.603745 6.267816 7.459193 -0.234152 5.380889 -8.776857 -1.062865 -37.810585 0.840663 0.000000 0.000000 0.000000 0.667771 -22.023812 -0.796043 0.807704 41.138734 2.937582 1.031818 -1.963188 0.547837 0.000000 0.000000 0.000000 1.258195 -8.506334 3.355360 2.198567 18.125253 -2.490793 2.503897 0.910363 0.910731 0.000000 0.000000 0.000000 
228.352753 -120.346413 1094.281982 -5.217795 3.526116 -0.610483 1.760871 4.393118 1.344788 0.923781 -0.730780 -0.346508 0.870967 0.839763 0.199902 -0.181691 -5.145905 4.533555 0.000000 0.000000 0.000000 2.795061 -2.264901 -3.702432 -2.665213 -1.725887 -2.287441 -0.138642 -43.093978 5.998100 0.000000 0.000000 0.000000 -3.102356 4.869593 8.175800 0.170650 4.390037 -6.377482 -0.807159 -34.649081 0.325211 0.000000 0.000000 0.000000 0.616635 -24.827326 -1.648136 1.103024 45.644053 3.445939 1.154535 -1.458773 0.557364 0.000000 0.000000 0.000000 1.008411 -9.184711 3.583813 2.241945 19.805623 -2.845418 2.598027 1.442273 0.885841 0.000000 0.000000 0.000000 
238.306107 -123.227104 1095.277954 -5.186989 3.323719 -0.426224 2.146861 4.440752 0.882844 1.241404 -0.864403 -0.188113 1.131764 0.913152 0.099227 -0.277766 -5.097945 4.897650 0.000000 0.000000 0.000000 2.081305 -4.125027 -3.244034 -2.932109 -3.728582 -3.284708 -0.238814 -40.856989 5.751339 0.000000 0.000000 0.000000 -4.379263 3.695397 9.049597 0.336418 3.435009 -5.223470 -0.666798 -32.415239 0.123280 0.000000 0.000000 0.000000 0.322813 -26.223629 -2.516681 0.965003 47.910274 3.305974 0.469046 -1.230321 0.292363 0.000000 0.000000 0.000000 0.717745 -9.246483 3.758149 2.094452 21.359372 -3.154597 2.472771 1.914194 0.781013 0.000000 0.000000 0.000000 
249.275085 -126.216492 1095.813965 -4.968621 2.897504 -0.266899 2.389475 4.259495 0.435853 1.520859 -0.871335 -0.057553 1.384504 0.931748 -0.015305 -0.355982 -5.172525 5.241377 0.000000 0.000000 0.000000 1.366587 -6.009071 -2.480781 -3.181884 -5.788895 -4.569425 -0.283606 -37.474258 5.528361 0.000000 0.000000 0.000000 -5.659968 2.567541 10.047987 0.374266 2.426493 -4.741345 -0.587440 -30.317750 -0.027776 0.000000 0.000000 0.000000 -0.115208 -26.733527 -3.372453 0.469936 48.528519 2.719801 -0.881206 -1.456016 -0.181955 0.000000 0.000000 0.000000 0.439444 -8.929323 3.973396 1.850630 22.744652 -3.468897 2.215069 2.318330 0.632809 0.000000 0.000000 0.000000 
260.920471 -129.102097 1095.760010 -4.651819 2.412504 -0.170748 2.515449 3.919107 0.207209 1.741598 -0.812805 0.022831 1.603224 0.914069 -0.097794 -0.405499 -5.245207 5.428559 0.000000 0.000000 0.000000 0.831997 -7.732221 -1.702446 -3.462858 -7.651883 -5.928133 -0.281880 -33.953870 5.434288 0.000000 0.000000 0.000000 -6.718416 1.593915 10.856902 0.367352 1.506547 -4.552215 -0.512730 -28.430034 0.148296 0.000000 0.000000 0.000000 -0.544953 -26.974400 -4.179089 -0.082775 48.322674 1.889007 -2.202588 -1.935518 -0.629288 0.000000 0.000000 0.000000 0.148420 -8.417922 4.240647 1.553792 23.966239 -3.774177 1.883764 2.596052 0.469933 0.000000 0.000000 0.000000 
273.367615 -131.604721 1094.912964 -4.245349 1.962649 -0.149705 2.494937 3.386347 0.383534 1.862192 -0.730112 0.028792 1.742239 0.856177 -0.106390 -0.411897 -5.210152 5.340404 0.000000 0.000000 0.000000 0.683653 -9.119652 -1.324338 -3.790169 -9.058291 -7.044145 -0.262301 -31.056372 5.565387 0.000000 0.000000 0.000000 -7.279650 0.884703 11.295961 0.372033 0.773364 -4.571278 -0.389184 -26.777000 0.980558 0.000000 0.000000 0.000000 -0.902276 -27.279285 -4.956836 -0.518238 47.733502 0.857548 -3.141169 -2.476407 -0.932285 0.000000 0.000000 0.000000 -0.192240 -7.769134 4.549831 1.203527 24.976479 -4.064759 1.486887 2.677689 0.302680 0.000000 0.000000 0.000000 
286.745117 -133.811951 1093.321045 -3.710286 1.482250 -0.185870 2.317841 2.636060 0.866551 1.882723 -0.575959 -0.029756 1.808062 0.709232 -0.049741 -0.379331 -5.093946 5.032989 0.000000 0.000000 0.000000 0.842720 -10.249304 -1.321220 -4.129542 -10.090568 -7.915470 -0.228283 -28.399580 5.879148 0.000000 0.000000 0.000000 -7.416956 0.397253 11.537721 0.393357 0.161028 -5.002157 -0.211638 -25.311226 2.370965 0.000000 0.000000 0.000000 -1.278101 -27.380122 -5.730369 -0.985734 46.379505 -0.432167 -3.947039 -2.999041 -1.191863 0.000000 0.000000 0.000000 -0.575531 -6.909385 4.891693 0.786084 25.774913 -4.339872 1.007708 2.577773 0.123893 0.000000 0.000000 0.000000 
299.522644 -136.285385 1091.499023 -3.098831 0.951312 -0.278884 2.138870 2.135879 1.347972 1.841689 -0.435136 -0.105270 1.811904 0.564970 0.018156 -0.350745 -4.981466 4.760374 0.000000 0.000000 0.000000 1.102656 -11.274199 -1.478287 -4.483557 -10.953788 -8.634270 -0.200182 -26.044822 6.166184 0.000000 0.000000 0.000000 -7.509273 0.020371 11.792847 0.443245 -0.356872 -5.610021 -0.033377 -24.441815 3.728633 0.000000 0.000000 0.000000 -1.557486 -27.326408 -6.352620 -1.347365 44.480281 -1.644705 -4.305779 -3.440721 -1.295557 0.000000 0.000000 0.000000 -0.941175 -6.051391 5.277875 0.381781 26.609975 -4.556148 0.556610 2.417036 -0.036334 0.000000 0.000000 0.000000 
310.568024 -139.535477 1089.730957 -2.409461 0.306448 -0.440187 2.082612 2.342905 1.580166 1.778643 -0.430895 -0.152087 1.764999 0.572018 0.048172 -0.358728 -4.954033 4.717243 0.000000 0.000000 0.000000 1.293342 -12.306907 -1.720436 -4.856282 -11.793063 -9.220441 -0.193940 -24.055960 6.265152 0.000000 0.000000 0.000000 -7.874847 -0.307001 12.307240 0.503370 -0.785734 -6.301301 0.089086 -24.625361 4.699805 0.000000 0.000000 0.000000 -1.648403 -27.059469 -6.673248 -1.489106 42.126694 -2.681499 -4.027823 -3.890879 -1.165558 0.000000 0.000000 0.000000 -1.256749 -5.324554 5.739028 0.032064 27.716646 -4.681626 0.200194 2.241585 -0.157886 0.000000 0.000000 0.000000 
320.469574 -143.354858 1087.819946 -1.578383 -0.461634 -0.656810 2.070027 3.123571 1.654711 1.675354 -0.563259 -0.175925 1.656441 0.708752 0.065097 -0.389055 -4.985307 4.823190 0.000000 0.000000 0.000000 1.473623 -13.281273 -2.231530 -5.213401 -12.519341 -9.564020 -0.201813 -22.421643 6.258685 0.000000 0.000000 0.000000 -8.363531 -0.544118 13.049032 0.553602 -1.120777 -7.206098 0.164282 -25.730206 5.504717 0.000000 0.000000 0.000000 -1.603042 -26.479520 -6.781463 -1.444274 39.142156 -3.685139 -3.310030 -4.248521 -0.878983 0.000000 0.000000 0.000000 -1.561671 -4.636020 6.251182 -0.307843 29.002269 -4.715261 -0.104999 2.014066 -0.254088 0.000000 0.000000 0.000000 
329.714020 -147.085464 1086.011963 -0.796344 -1.034299 -0.883947 1.985309 3.735747 1.841397 1.540991 -0.659611 -0.235588 1.529090 0.804135 0.114756 -0.420567 -4.991994 4.922571 0.000000 0.000000 0.000000 1.779485 -14.086034 -2.875700 -5.541163 -13.046314 -9.749008 -0.210896 -21.351691 6.244140 0.000000 0.000000 0.000000 -8.702560 -0.742696 13.501500 0.579452 -1.397431 -7.954852 0.177577 -26.985986 5.971998 0.000000 0.000000 0.000000 -1.353545 -26.129280 -6.920882 -1.127065 36.002788 -4.205965 -2.208667 -4.383445 -0.460874 0.000000 0.000000 0.000000 -1.829536 -4.153383 6.717363 -0.584577 30.187393 -4.662161 -0.307151 1.855869 -0.317266 0.000000 0.000000 0.000000 
338.321411 -150.121033 1084.473999 -0.275598 -1.112644 -1.100976 1.776721 3.608340 2.403450 1.375761 -0.573842 -0.418922 1.413588 0.738319 0.251095 -0.433893 -4.935673 4.906426 0.000000 0.000000 0.000000 2.355553 -14.655983 -3.614758 -5.825921 -13.318894 -9.745176 -0.226279 -21.094631 6.195921 0.000000 0.000000 0.000000 -8.688031 -0.945428 13.228109 0.580482 -1.637163 -8.253284 0.117211 -27.949511 5.879039 0.000000 0.000000 0.000000 -0.717453 -26.544107 -7.283409 -0.334759 32.968415 -3.796087 -0.502453 -4.313258 0.174393 0.000000 0.000000 0.000000 -2.019956 -4.107274 7.094443 -0.732601 31.128135 -4.561474 -0.350246 1.803982 -0.330243 0.000000 0.000000 0.000000 
346.118866 -152.701004 1083.107056 0.098284 -0.842680 -1.286829 1.463903 3.074920 3.185405 1.161040 -0.396005 -0.678094 1.278468 0.571525 0.457487 -0.437931 -4.848160 4.843274 0.000000 0.000000 0.000000 3.143240 -15.016671 -4.547598 -6.050153 -13.370011 -9.459393 -0.257561 -21.580171 6.065559 0.000000 0.000000 0.000000 -8.404233 -1.135730 12.431792 0.559799 -1.823904 -8.250475 -0.008280 -28.902343 5.290384 0.000000 0.000000 0.000000 0.286127 -27.430561 -7.870340 0.971728 29.663878 -2.676304 1.746722 -3.944554 0.994096 0.000000 0.000000 0.000000 -2.153599 -4.414282 7.375788 -0.788927 31.933267 -4.400780 -0.259425 1.804908 -0.298540 0.000000 0.000000 0.000000 
